<?xml version="1.0"?>
<svg width="640" height="479.9999999999999" xmlns="http://www.w3.org/2000/svg" xmlns:svg="http://www.w3.org/2000/svg" xmlns:xlink="http://www.w3.org/1999/xlink">
 <!-- Created with SVG-edit - https://github.com/SVG-Edit/svgedit-->
 <g class="layer">
  <title>Layer 1</title>
  <rect fill="#000000" fill-opacity="0" height="237.43" id="svg_1" stroke="#000000" transform="matrix(1 0 0 1 0 0)" width="386.03" x="124.02" y="104.69"/>
  <image height="762.64" id="svg_7" transform="matrix(1 0 0 1 0 0)" width="656.3" x="653.09" xlink:href="./9level.jpg" y="196.18"/>
  <image height="0" id="svg_3" width="0" x="73.2" xlink:href="./images/logo.svg" y="233"/>
  <image height="0" id="svg_4" width="0" x="106.2" xlink:href="./images/logo.svg" y="265"/>
  <path d="m126.48,252.67l-0.3,89.55l70.45,0c0,-30.81 0,-58.59 0,-89.39l-70.15,-0.15l0,-0.01z" fill="#ff0000" fill-opacity="0.5" id="svg_8" stroke="#000000" transform="matrix(1 0 0 1 0 0)"/>
  <path d="m196.94,252.21l80.76,-0.15l0,90.91l-78.79,0l-1.97,-90.76z" fill="#ff0000" fill-opacity="0.5" id="svg_10" stroke="#000000" transform="matrix(1 0 0 1 0 0)"/>
  <path d="m278.76,252.97l80.76,-0.15l0,90.91l-80.3,0l-0.45,-90.76l-0.01,0z" fill="#ff0000" fill-opacity="0.5" id="svg_11" stroke="#000000"/>
  <path d="m360.58,252.21l78.48,-0.15l0,22.73l-79.55,0l1.06,-22.58l0.01,0z" fill="#ff0000" fill-opacity="0.5" id="svg_12" stroke="#000000"/>
  <path d="m360.58,275.7l-0.3,66.52l48.48,0l0,-65.91l-48.18,-0.61z" fill="#ff0000" fill-opacity="0.5" id="svg_13" stroke="#000000"/>
  <path d="m409.06,274.94l-0.3,66.52l27.27,0l0,-66.67l-26.97,0.15z" fill="#ff0000" fill-opacity="0.5" id="svg_14" stroke="#000000" transform="matrix(1 0 0 1 0 0)"/>
  <path d="m439.36,252.97l70.91,-0.15l0,52.27l-71.21,0l0.3,-52.12z" fill="#ff0000" fill-opacity="0.5" id="svg_15" stroke="#000000" transform="matrix(1 0 0 1 0 0)"/>
  <path d="m439.36,306.76l69.39,-0.15l0,35.61l-70.45,0l1.06,-35.45l0,-0.01z" fill="#ff0000" fill-opacity="0.5" id="svg_16" stroke="#000000"/>
  <path d="m206.03,105.24l-0.3,57.42l46.97,0l0,-57.58l-46.67,0.15l0,0.01z" fill="#ff0000" fill-opacity="0.5" id="svg_17" stroke="#000000" transform="matrix(1 0 0 1 0 0)"/>
  <path d="m254.17,104.77l-0.43,37.62l24.68,0l0,-36.6l-24.26,-1.02l0.01,0z" fill="#ff0000" fill-opacity="0.5" id="svg_18" stroke="#000000" transform="matrix(1 0 0 1 0 0)"/>
  <path d="m254.6,143.06l-0.43,22.72l24.26,0l0,-22.55l-23.83,-0.17z" fill="#ff0000" fill-opacity="0.5" id="svg_19" stroke="#000000"/>
  <path d="m255.02,166.89l-0.43,34.21l24.68,0l0,-34.04l-24.26,-0.17l0.01,0z" fill="#ff0000" fill-opacity="0.5" id="svg_20" stroke="#000000" transform="matrix(1 0 0 1 0 0)"/>
  <path d="m330.34,105.19l-0.43,92.09l30.64,0l0,-91.49l-30.21,-0.6z" fill="#ff0000" fill-opacity="0.5" id="svg_21" stroke="#000000" transform="matrix(1 0 0 1 0 0)"/>
  <path d="m361.4,105.62l-0.43,56.77l75.32,0l0,-57.02l-74.89,0.26l0,-0.01z" fill="#ff0000" fill-opacity="0.5" id="svg_22" stroke="#000000"/>
  <path d="m361.4,163.49l-0.43,34.21l26.81,0l0,-34.89l-26.38,0.68z" fill="#ff0000" fill-opacity="0.5" id="svg_23" stroke="#000000"/>
  <path d="m419.7,167.74l-0.43,28.26l17.02,0l0,-28.94l-16.6,0.68l0.01,0z" fill="#ff0000" fill-opacity="0.5" id="svg_24" stroke="#000000"/>
  <path d="m206,168.09l0.09,26.64l16.6,0l0,-25.96c-5.42,-0.37 -11.26,-0.31 -16.68,-0.68l-0.01,0z" fill="#ff0000" fill-opacity="0.5" id="svg_25" stroke="#000000" transform="matrix(1 0 0 1 0 0)"/>
  <path d="m279.19,105.11l-0.34,95.15l49.79,0l0,-94.47l-49.45,-0.68z" fill="#ff0000" fill-opacity="0.5" id="svg_26" stroke="#000000" transform="matrix(1 0 0 1 0 0)"/>
  <rect fill="#000000" fill-opacity="0" height="51.96" id="svg_2" stroke="#000000" width="384.36" x="125.14" y="199.89"/>
  <text fill="#000000" font-family="Serif" font-size="24" id="svg_6" stroke="#000000" stroke-width="0" text-anchor="middle" transform="matrix(1 0 0 1 0 0)" x="147.2" xml:space="preserve" y="294.9">907</text>
  <text fill="#000000" font-family="Serif" font-size="24" id="svg_9" stroke="#000000" stroke-width="0" text-anchor="middle" x="238.08" xml:space="preserve" y="296.33">905</text>
  <text fill="#000000" font-family="Serif" font-size="24" id="svg_27" stroke="#000000" stroke-width="0" text-anchor="middle" transform="matrix(1 0 0 1 0 0)" x="317.28" xml:space="preserve" y="299.03">903.3</text>
  <text fill="#000000" font-family="Serif" font-size="18" id="svg_28" stroke="#000000" stroke-width="0" text-anchor="middle" x="382.76" xml:space="preserve" y="317.91">903.2</text>
  <text fill="#000000" font-family="Serif" font-size="18" id="svg_29" stroke="#000000" stroke-width="0" text-anchor="middle" transform="matrix(1 0 0 1 0 0) matrix(0.566087 0 0 1 176.922 0)" x="434.2" xml:space="preserve" y="316.65">903.1</text>
  <text fill="#000000" font-family="Serif" font-size="24" id="svg_30" stroke="#000000" stroke-width="0" text-anchor="middle" transform="matrix(1 0 0 1 0 0)" x="398.93" xml:space="preserve" y="270.85">903</text>
  <text fill="#000000" font-family="Serif" font-size="24" id="svg_31" stroke="#000000" stroke-width="0" text-anchor="middle" x="487.78" xml:space="preserve" y="294.48">901</text>
  <text fill="#000000" font-family="Serif" font-size="24" id="svg_32" stroke="#000000" stroke-width="0" text-anchor="middle" x="481.92" xml:space="preserve" y="332.97">901.1</text>
  <text fill="#000000" font-family="Serif" font-size="24" id="svg_33" stroke="#000000" stroke-width="0" text-anchor="middle" transform="matrix(1 0 0 1 0 0)" x="403.68" xml:space="preserve" y="150.96">902.1</text>
  <text fill="#000000" font-family="Serif" font-size="20" id="svg_34" stroke="#000000" stroke-width="0" text-anchor="middle" transform="matrix(1 0 0 1 0 0) matrix(0.790751 0 0 1 75.7287 0)" x="376.9" xml:space="preserve" y="189.04">902</text>
  <text fill="#000000" font-family="Serif" font-size="18" id="svg_35" stroke="#000000" stroke-width="0" text-anchor="middle" transform="matrix(-3.99474e-7 -0.678949 1 -2.71223e-7 257.071 469.548)" x="424.18" xml:space="preserve" y="175.65">900.1</text>
  <text fill="#000000" font-family="Serif" font-size="18" id="svg_36" stroke="#000000" stroke-width="0" text-anchor="middle" transform="matrix(1 0 0 1 0 0) matrix(0.638089 0 0 1 122.433 0)" x="348.31" xml:space="preserve" y="187.36">904.2</text>
  <text fill="#000000" font-family="Serif" font-size="24" id="svg_37" stroke="#000000" stroke-width="0" text-anchor="middle" transform="matrix(1 0 0 1 0 0)" x="303.26" xml:space="preserve" y="167.7">904</text>
  <text fill="#000000" font-family="Serif" font-size="20" id="svg_38" stroke="#000000" stroke-width="0" text-anchor="middle" transform="matrix(1 0 0 1 0 0) matrix(0.707084 0 0 1 75.6131 0)" x="270.18" xml:space="preserve" y="188.2">906</text>
  <text fill="#000000" font-family="Serif" font-size="20" id="svg_39" stroke="#000000" stroke-width="0" text-anchor="middle" transform="matrix(1 0 0 1 0 0) matrix(0.474362 0 0 1 134.218 0)" x="276.98" xml:space="preserve" y="161.42">906.1</text>
  <text fill="#000000" font-family="Serif" font-size="20" id="svg_40" stroke="#000000" stroke-width="0" text-anchor="middle" transform="matrix(1 0 0 1 0 0) matrix(0.474362 0 0 1 142.586 8.3682)" x="258.46" xml:space="preserve" y="126.28">906.3</text>
  <text fill="#000000" font-family="Serif" font-size="20" id="svg_41" stroke="#000000" stroke-width="0" text-anchor="middle" transform="matrix(0.897713 0 0 1 21.229 0)" x="230.04" xml:space="preserve" y="151.8">906.2</text>
  <text fill="#000000" font-family="Serif" font-size="18" id="svg_42" stroke="#000000" stroke-width="0" text-anchor="middle" transform="matrix(1 0 0 1 0 0) matrix(-3.99474e-7 -0.631613 1 -2.52313e-7 265.439 458.212)" x="438.36" xml:space="preserve" y="-46.53">900.2</text>
  <circle cx="158.75" cy="252.4" fill="#FF0000" id="svg_43" r="2" stroke="#000000"/>
  <circle cx="243.5" cy="251.78" fill="#FF0000" id="svg_5" r="2" stroke="#000000"/>
  <circle cx="332" cy="252.53" fill="#FF0000" id="svg_44" r="2" stroke="#000000"/>
  <circle cx="406.55" cy="251.78" fill="#FF0000" id="svg_45" r="2" stroke="#000000"/>
  <circle cx="387.05" cy="275.03" fill="#FF0000" id="svg_46" r="2" stroke="#000000"/>
  <circle cx="425.55" cy="275.03" fill="#FF0000" id="svg_47" r="2" stroke="#000000"/>
  <circle cx="484.35" cy="252.78" fill="#FF0000" id="svg_48" r="2" stroke="#000000"/>
  <circle cx="485.1" cy="306.53" fill="#FF0000" id="svg_49" r="2" stroke="#000000" transform="matrix(1 0 0 1 0 0)"/>
  <circle cx="426.6" cy="196.63" fill="#FF0000" id="svg_50" r="2" stroke="#000000"/>
  <circle cx="374.85" cy="198.38" fill="#FF0000" id="svg_51" r="2" stroke="#000000"/>
  <circle cx="346.1" cy="197.63" fill="#FF0000" id="svg_52" r="2" stroke="#000000"/>
  <circle cx="305.2" cy="200.18" fill="#FF0000" id="svg_53" r="2" stroke="#000000" transform="matrix(1 0 0 1 0 0)"/>
  <circle cx="407.4" cy="161.68" fill="#FF0000" id="svg_54" r="2" stroke="#000000"/>
  <circle cx="265.9" cy="199.93" fill="#FF0000" id="svg_55" r="2" stroke="#000000" transform="matrix(1 0 0 1 0 0)"/>
  <circle cx="267.15" cy="165.93" fill="#FF0000" id="svg_56" r="2" stroke="#000000" transform="matrix(1 0 0 1 0 0)"/>
  <circle cx="265.15" cy="143.43" fill="#FF0000" id="svg_57" r="2" stroke="#000000"/>
  <circle cx="237.65" cy="162.93" fill="#FF0000" id="svg_58" r="2" stroke="#000000" transform="matrix(1 0 0 1 0 0)"/>
  <circle cx="214.15" cy="194.93" fill="#FF0000" id="svg_59" r="2" stroke="#000000" transform="matrix(1 0 0 1 0 0)"/>
  <path d="m154.9,194.6l-0.15,-5.35l6.25,0l0,-6.25l6.5,0l0,-6.25l6.25,0l0,-6.75l7.25,0l0,25l-26.1,-0.4z" fill="#ff0000" fill-opacity="0.5" id="svg_G4Vya0" stroke="#000000" transform="matrix(1 0 0 1 0 0)"/>
  <path d="m459.18,194.48l-0.15,-5.35l6.25,0l0,-6.25l6.5,0l0,-6.25l6.25,0l0,-6.75l7.25,0l0,25l-26.1,-0.4z" fill="#ff0000" fill-opacity="0.5" id="svg_6ljHr4" stroke="#000000" transform="matrix(1 0 0 1 0 0)"/>
  <circle cx="170.6" cy="195.25" fill="#FF0000" id="svg_16FUZz" r="2" stroke="#000000" transform="matrix(1 0 0 1 0 0)"/>
  <circle cx="475.1" cy="194.75" fill="#FF0000" id="svg_X1WLCh" r="2" stroke="#000000" transform="matrix(1 0 0 1 0 0)"/>
  <path d="m100.7,225.7l420.8,-0.2l-420.8,0.2z" fill="#FF0000" id="svg_2heYY3" stroke="#000000" transform="matrix(1 0 0 1 0 0)"/>
  <circle cx="170.61" cy="225.67" fill="green" id="svg_1vLaK8" r="2" stroke="black"/>
  <circle cx="158.74" cy="225.67" fill="green" id="svg_de93TE" r="2" stroke="black"/>
  <circle cx="243.49" cy="225.63" fill="green" id="svg_bjWkBq" r="2" stroke="black" transform="matrix(1 0 0 1 0 0)"/>
  <circle cx="237.68" cy="225.63" fill="green" id="svg_5HPZm2" r="2" stroke="black"/>
  <circle cx="214.16" cy="225.65" fill="green" id="svg_Um63FL" r="2" stroke="black"/>
  <circle cx="265.91" cy="225.62" fill="green" id="svg_UFzSBn" r="2" stroke="black"/>
  <circle cx="475.11" cy="225.52" fill="green" id="svg_Iswdoo" r="2" stroke="black" transform="matrix(1 0 0 1 0 0)"/>
  <circle cx="331.99" cy="225.59" fill="green" id="svg_imDQTm" r="2" stroke="black"/>
 </g>
</svg>